<?xml version="1.0" encoding="utf-8"?>

<!DOCTYPE svg PUBLIC "-//W3C//DTD SVG 1.1//EN" "http://www.w3.org/Graphics/SVG/1.1/DTD/svg11.dtd">
<!-- Uploaded to: SVG Repo, www.svgrepo.com, Generator: SVG Repo Mixer Tools -->
<svg height="800px" width="800px" version="1.1" id="_x32_" xmlns="http://www.w3.org/2000/svg" xmlns:xlink="http://www.w3.org/1999/xlink" 
	 viewBox="0 0 512 512"  xml:space="preserve">
<style type="text/css">
	.st0{fill:#000000;}
</style>
<g>
	<path class="st0" d="M506.033,234.379c-3.835-10.318-9.432-20.046-16.362-28.81c-20.996-26.601-53.633-46.272-93.351-59.9
		c-2.87-0.957-5.821-1.921-8.764-2.799c-15.326-4.792-31.609-8.627-48.632-11.498c-25.198-4.274-52.014-6.483-79.939-6.483h-4.864
		c-16.506,0.144-32.638,1.108-48.258,2.727c-27.557,2.943-53.568,8.102-77.291,15.47c-13.707,4.13-26.672,9.066-38.682,14.592
		c-3.828,1.77-7.591,3.612-11.275,5.526c-23.132,12.152-42.509,27.112-56.432,45.013c-13.93,17.908-22.255,39.2-22.183,62.116v0.734
		c0.079,11.204,2.137,21.96,6.044,31.68c6.85,17.248,19.305,31.242,34.854,42.071c23.428,16.283,54,26.457,89.371,33.012
		c35.437,6.554,75.816,9.281,118.692,9.281c2.656,0,5.382,0,8.03-0.072c67.052-0.59,128.06-7.224,174.405-24.392
		c23.204-8.692,42.948-20.111,57.54-35.803c7.217-7.887,13.117-16.873,17.096-26.824c3.98-9.944,6.038-20.772,5.965-32.191v-0.741
		C511.927,255.742,509.862,244.69,506.033,234.379z M478.842,267.829c0,7.512-1.252,13.995-3.612,19.888
		c-4.123,10.318-11.786,19.528-23.795,27.853c-17.83,12.527-45.243,22.398-78.838,28.658c-33.595,6.339-73.312,9.361-115.822,9.656
		c-2.655,0.072-5.231,0.072-7.814,0.072c-63.217,0.072-119.728-6.331-158.41-20.851c-19.377-7.145-34.04-16.211-43.322-26.378
		c-4.64-5.08-8.03-10.462-10.39-16.283c-2.353-5.821-3.605-12.232-3.684-19.6v-0.511c0-14.958,5.015-28.586,15.182-41.775
		c12.081-15.693,31.976-30.213,57.692-41.855c9.426,18.348,17.088,35.811,23.133,50.252c11.124,26.306,34.408,17.167,28.515-7.512
		c-3.317-14.297-7.001-32.789-15.693-55.849c23.579-6.93,50.028-11.722,78.392-14.002c10.023,24.535,17.391,47.963,22.989,66.829
		c8.771,29.321,35.364,22.471,32.126-4.497c-1.921-16.132-3.612-36.983-10.685-63.807c30.206,0.295,58.871,3.54,84.731,9.066
		c5.454,21.291,9.282,41.186,12.232,57.764c5.446,30.429,32.342,26.378,32.048-1.18c-0.072-12.009,0.223-26.45-1.252-44.208
		c9.21,3.461,17.83,7.224,25.716,11.275c19.815,10.167,35.141,22.247,45.236,35.221c10.167,12.965,15.182,26.37,15.326,41.257
		V267.829z"/>
</g>
</svg>