<?xml version="1.0" encoding="iso-8859-1"?>
<!-- Uploaded to: SVG Repo, www.svgrepo.com, Generator: SVG Repo Mixer Tools -->
<svg  height="800px" width="800px" version="1.1" id="Layer_1" xmlns="http://www.w3.org/2000/svg" xmlns:xlink="http://www.w3.org/1999/xlink"
	 viewBox="0 0 512 512" xml:space="preserve">
<g>
	<g>
		<path d="M239.692,32.681H40.851c-4.513,0-8.17,3.658-8.17,8.17v198.823c0,4.512,3.657,8.17,8.17,8.17h198.841
			c4.513,0,8.17-3.658,8.17-8.17V40.851C247.862,36.339,244.205,32.681,239.692,32.681z M231.522,231.504H49.021V49.021h182.501
			V231.504z"/>
	</g>
</g>
<g>
	<g>
		<path d="M471.149,0H40.851C18.325,0,0,18.325,0,40.851v430.298C0,493.675,18.325,512,40.851,512h430.298
			C493.675,512,512,493.675,512,471.149V40.851C512,18.325,493.675,0,471.149,0z M495.66,471.149
			c0,13.516-10.996,24.511-24.511,24.511H40.851c-13.515,0-24.511-10.995-24.511-24.511V40.851
			c0-13.516,10.996-24.511,24.511-24.511h430.298c13.515,0,24.511,10.995,24.511,24.511V471.149z"/>
	</g>
</g>
<g>
	<g>
		<path d="M351.354,66.727c-18.033,0-32.704,14.662-32.704,32.684c0,18.02,14.67,32.68,32.658,32.68
			c4.521,0.025,8.2,3.691,8.2,8.171c0.002,4.481-3.677,8.146-8.154,8.171c-18.033,0-32.704,14.661-32.704,32.68
			c0,18.021,14.67,32.684,32.704,32.684c40.537,0,73.517-32.988,73.517-73.535C424.871,99.715,391.891,66.727,351.354,66.727z
			 M351.354,197.457c-9.022,0-16.363-7.332-16.363-16.344c0-9.01,7.34-16.339,16.409-16.339c13.482-0.075,24.45-11.071,24.45-24.512
			c0.001-13.442-10.968-24.437-24.495-24.512c-9.022,0-16.363-7.33-16.363-16.339c0-9.011,7.34-16.344,16.363-16.344
			c31.527,0,57.176,25.658,57.176,57.195C408.53,171.8,382.881,197.457,351.354,197.457z"/>
	</g>
</g>
<g>
	<g>
		<path d="M471.149,32.681H272.373c-4.513,0-8.17,3.658-8.17,8.17v198.823c0,4.512,3.657,8.17,8.17,8.17h198.776
			c4.513,0,8.17-3.658,8.17-8.17V40.851C479.319,36.339,475.662,32.681,471.149,32.681z M462.979,231.504H280.543V49.021h182.435
			V231.504z"/>
	</g>
</g>
<g>
	<g>
		<path d="M428.948,387.967c-0.309-20.347-7.286-42.501-19.139-60.784c-11.758-18.135-25.981-28.962-38.048-28.962
			c-0.228,0-0.454,0.007-0.681,0.018c-11.918,0.395-25.829,11.147-37.366,28.943c-11.854,18.283-18.83,40.438-19.139,60.784
			c-0.001,0.041-0.001,0.083-0.001,0.124c0,31.536,25.653,57.191,57.187,57.191s57.188-25.656,57.188-57.191
			C428.949,388.05,428.949,388.009,428.948,387.967z M353.341,329.895c-3.82,17.605-6.039,38.809-6.088,58.175
			c-0.029,11.484,1.296,24.804,4.656,35.704c-12.494-6.981-20.971-20.326-20.994-35.622c0.277-17.343,6.293-36.321,16.51-52.079
			c2.144-3.307,4.335-6.23,6.5-8.791C353.73,328.13,353.536,328.998,353.341,329.895z M391.634,423.764
			c1.619-5.258,2.86-11.411,3.674-18.382c0.524-4.482-2.684-8.539-7.165-9.065c-4.497-0.528-8.541,2.683-9.065,7.166
			c-1.657,14.152-5.206,22.025-7.328,24.722c-3.04-3.829-8.216-17.52-8.158-40.092c0.07-27.602,4.386-51.416,8.173-64.61
			c3.016,10.531,6.354,27.863,7.643,48.751c0.278,4.505,4.152,7.927,8.657,7.652c4.503-0.278,7.928-4.154,7.651-8.657
			c-0.943-15.314-3.156-31.109-6.131-43.98c2.169,2.563,4.364,5.49,6.511,8.804c10.217,15.757,16.234,34.735,16.512,52.079
			C412.586,403.441,404.118,416.78,391.634,423.764z"/>
	</g>
</g>
<g>
	<g>
		<path d="M471.149,264.184H272.373c-4.513,0-8.17,3.658-8.17,8.17v198.794c0,4.512,3.657,8.17,8.17,8.17h198.776
			c4.513,0,8.17-3.658,8.17-8.17V272.355C479.319,267.842,475.662,264.184,471.149,264.184z M462.979,462.979H280.543V280.525
			h182.435V462.979z"/>
	</g>
</g>
<g>
	<g>
		<path d="M119.865,298.216c-18.033,0-32.704,14.662-32.704,32.684c0,18.02,14.67,32.68,32.658,32.68
			c4.521,0.025,8.2,3.691,8.2,8.171c0.002,4.481-3.677,8.146-8.153,8.171c-18.033,0-32.704,14.661-32.704,32.68
			c0,18.021,14.672,32.684,32.704,32.684c40.537,0,73.516-32.988,73.516-73.535C193.381,331.204,160.402,298.216,119.865,298.216z
			 M119.866,428.946c-9.023,0-16.363-7.332-16.363-16.344c0-9.01,7.34-16.339,16.409-16.339
			c13.481-0.075,24.449-11.071,24.449-24.512c0.001-13.442-10.968-24.437-24.495-24.512c-9.022,0-16.363-7.33-16.363-16.339
			c0-9.011,7.34-16.344,16.363-16.344c31.527,0,57.176,25.658,57.176,57.195C177.041,403.289,151.392,428.946,119.866,428.946z"/>
	</g>
</g>
<g>
	<g>
		<path d="M239.692,264.184H40.851c-4.513,0-8.17,3.658-8.17,8.17v198.794c0,4.512,3.657,8.17,8.17,8.17h198.841
			c4.513,0,8.17-3.658,8.17-8.17V272.355C247.862,267.842,244.205,264.184,239.692,264.184z M231.522,462.979H49.021V280.525
			h182.501V462.979z"/>
	</g>
</g>
<g>
	<g>
		<path d="M197.459,156.478c-0.309-20.346-7.286-42.501-19.139-60.784c-11.758-18.135-25.981-28.962-38.047-28.962
			c-0.228,0-0.454,0.007-0.68,0.019c-11.92,0.395-25.831,11.146-37.368,28.943c-11.854,18.283-18.83,40.438-19.139,60.784
			c-0.001,0.041-0.001,0.083-0.001,0.124c0,31.536,25.653,57.191,57.188,57.191c31.533,0,57.187-25.656,57.187-57.191
			C197.46,156.561,197.46,156.519,197.459,156.478z M121.852,98.406c-3.82,17.605-6.039,38.808-6.088,58.175
			c-0.029,11.483,1.296,24.804,4.656,35.704c-12.494-6.981-20.971-20.326-20.994-35.622c0.277-17.344,6.293-36.323,16.51-52.08
			c2.144-3.307,4.335-6.23,6.5-8.79C122.241,96.642,122.047,97.509,121.852,98.406z M160.144,192.276
			c1.619-5.259,2.861-11.411,3.677-18.383c0.524-4.482-2.684-8.54-7.165-9.065c-4.498-0.528-8.541,2.684-9.065,7.166
			c-1.657,14.152-5.206,22.025-7.327,24.722c-3.042-3.829-8.217-17.52-8.159-40.092c0.07-27.602,4.386-51.416,8.173-64.61
			c3.016,10.531,6.354,27.863,7.643,48.751c0.277,4.505,4.157,7.934,8.657,7.652c4.503-0.278,7.928-4.154,7.651-8.657
			c-0.943-15.313-3.156-31.109-6.131-43.98c2.169,2.563,4.363,5.49,6.511,8.804c10.216,15.757,16.233,34.735,16.51,52.079
			C181.097,171.952,172.628,185.292,160.144,192.276z"/>
	</g>
</g>
</svg>
